<svg xmlns="http://www.w3.org/2000/svg" xmlns:xlink="http://www.w3.org/1999/xlink" width="361" height="226" viewBox="0 0 361 226">
  <defs>
    <clipPath id="clip-path">
      <path id="Clip_2" data-name="Clip 2" d="M0,0H96.124V96.715H0Z" fill="none"/>
    </clipPath>
    <clipPath id="clip-path-2">
      <path id="Clip_5" data-name="Clip 5" d="M0,0H46.425V28.309H0Z" fill="none"/>
    </clipPath>
    <clipPath id="clip-path-3">
      <path id="Clip_2-2" data-name="Clip 2" d="M0,0H36.172V40.815H0Z" fill="none"/>
    </clipPath>
    <clipPath id="clip-path-4">
      <path id="Clip_15" data-name="Clip 15" d="M0,51.113H348.532V0L0,.314Z" fill="none"/>
    </clipPath>
    <clipPath id="clip-path-5">
      <path id="Clip_8" data-name="Clip 8" d="M0,26.194H281.083V0H0Z" fill="none"/>
    </clipPath>
  </defs>
  <g id="Identity_part1_icon" data-name="Identity/part1/icon" transform="translate(127)">
    <g id="Identity_Icon" data-name="Identity/Icon" transform="translate(6.688 10.148)">
      <g id="Group_7" data-name="Group 7" transform="translate(0 0)">
        <g id="Group_3" data-name="Group 3" transform="translate(0 2.067)">
          <path id="Clip_2-3" data-name="Clip 2" d="M0,0H96.124V96.715H0Z" fill="none"/>
          <g id="Group_3-2" data-name="Group 3" clip-path="url(#clip-path)">
            <path id="Fill_1" data-name="Fill 1" d="M95.708,67.435a.263.263,0,0,1,.354.057.273.273,0,0,1-.017.365L81.226,82.849H81.22A47.366,47.366,0,0,1,12,80.44a48.7,48.7,0,0,1,1.816-65.993l0-.007L28.01.079a.273.273,0,0,1,.361-.02.278.278,0,0,1,.06.362c-12.181,19.455-9.339,45.814,7.871,62a47.908,47.908,0,0,0,59.405,5.019" transform="translate(0 0)" fill="#b2d234"/>
          </g>
        </g>
        <g id="Group_6" data-name="Group 6" transform="translate(41.536)">
          <path id="Clip_5-2" data-name="Clip 5" d="M0,0H46.425V28.309H0Z" transform="translate(0)" fill="none"/>
          <g id="Group_6-2" data-name="Group 6" transform="translate(0)" clip-path="url(#clip-path-2)">
            <path id="Fill_4" data-name="Fill 4" d="M46.425,7.093A28.249,28.249,0,0,0,9.359,6.768,28.74,28.74,0,0,0,0,22.1a28.278,28.278,0,0,1,25,6.112.414.414,0,0,0,.568-.02Z" transform="translate(0 -0.003)" fill="#22b362"/>
          </g>
        </g>
      </g>
    </g>
  </g>
  <g id="Identity_Crowdrising_part2" data-name="Identity/Crowdrising/part2" transform="translate(0 128)">
    <g id="Group_22" data-name="Group 22" transform="translate(4.818 3.866)">
      <g id="Group_3-3" data-name="Group 3" transform="translate(2.863 1.842)">
        <path id="Clip_2-4" data-name="Clip 2" d="M0,0H36.172V40.815H0Z" fill="none"/>
        <g id="Group_3-4" data-name="Group 3" clip-path="url(#clip-path-3)">
          <path id="Fill_1-2" data-name="Fill 1" d="M0,20.52v-.114A19.99,19.99,0,0,1,20.439,0c7.389,0,11.815,2.48,15.452,6.088L30.4,12.458C27.382,9.7,24.3,8,20.383,8,13.776,8,9.015,13.529,9.015,20.3v.11c0,6.765,4.647,12.4,11.368,12.4,4.478,0,7.222-1.8,10.3-4.621l5.488,5.582c-4.032,4.34-8.512,7.045-16.07,7.045C8.568,40.815,0,31.852,0,20.52" transform="translate(-0.001)" fill="#010202"/>
        </g>
      </g>
      <path id="Fill_4-2" data-name="Fill 4" d="M0,.576H8.512V6.664c1.734-4.17,4.534-6.877,9.574-6.651V8.976h-.449c-5.655,0-9.125,3.439-9.125,10.655V30.794H0Z" transform="translate(45.557 11.188)" fill="#010202"/>
      <path id="Fill_6" data-name="Fill 6" d="M16.183,31.456A16.4,16.4,0,0,1,4.607,26.9,15.328,15.328,0,0,1,0,15.839v-.111A15.437,15.437,0,0,1,4.641,4.608,16.494,16.494,0,0,1,16.3,0,16.4,16.4,0,0,1,27.871,4.551a15.327,15.327,0,0,1,4.605,11.063v.113a15.437,15.437,0,0,1-4.641,11.12A16.492,16.492,0,0,1,16.183,31.456Zm0-24.073C11.6,7.383,8.4,10.768,8.4,15.615v.113A8.042,8.042,0,0,0,16.3,24.071c4.582,0,7.782-3.385,7.782-8.232v-.111A8.042,8.042,0,0,0,16.183,7.383Z" transform="translate(68.062 11.201)" fill="#010202"/>
      <path id="Fill_8" data-name="Fill 8" d="M0,.112H8.624L13.44,18.436,19.093,0H26.43l5.711,18.492L37.07.112h8.453l-9.35,30.442H28.5L22.735,12.008,16.854,30.554H9.24Z" transform="translate(104.379 11.651)" fill="#010202"/>
      <path id="Fill_10" data-name="Fill 10" d="M13.66,41.718a13,13,0,0,1-9.455-4.024C1.454,34.831,0,30.823,0,26.1v-.113C0,21.255,1.44,17.246,4.164,14.4a13,13,0,0,1,9.5-4.024,11.449,11.449,0,0,1,9.353,4.51V0h8.51V41.153h-8.51v-4.34A11.026,11.026,0,0,1,13.66,41.718Zm2.186-24.073c-4.251,0-7.336,3.509-7.336,8.343V26.1c0,4.756,3.154,8.343,7.336,8.343,4.149,0,7.277-3.587,7.277-8.343v-.113C23.123,21.232,19.995,17.645,15.846,17.645Z" transform="translate(153.807 0.828)" fill="#010202"/>
      <path id="Fill_12" data-name="Fill 12" d="M0,.576H8.51V6.664c1.736-4.17,4.534-6.877,9.574-6.651V8.976h-.447c-5.655,0-9.127,3.439-9.127,10.655V30.794H0Z" transform="translate(193.605 11.188)" fill="#010202"/>
      <path id="Clip_15-2" data-name="Clip 15" d="M0,51.113H348.532V0L0,.314Z" transform="translate(0 0)" fill="none"/>
      <g id="Mask_Group_25" data-name="Mask Group 25" transform="translate(0 0)" clip-path="url(#clip-path-4)">
        <path id="Fill_14" data-name="Fill 14" d="M0,30.218H8.51V0H0Z" transform="translate(219.294 11.762)" fill="#010202"/>
        <path id="Fill_16" data-name="Fill 16" d="M0,26.666l3.639-5.638A16.888,16.888,0,0,0,13.1,24.636c2.464,0,3.583-.9,3.583-2.254V22.27c0-1.86-2.909-2.482-6.214-3.5-4.2-1.241-8.958-3.213-8.958-9.077V9.585C1.511,3.439,6.438,0,12.485,0a20.665,20.665,0,0,1,11.2,3.5L20.437,9.415C17.468,7.668,14.5,6.6,12.316,6.6c-2.07,0-3.136.9-3.136,2.086V8.8c0,1.69,2.857,2.479,6.1,3.608,4.2,1.409,9.071,3.437,9.071,8.963v.112c0,6.709-4.983,9.754-11.479,9.754A20.931,20.931,0,0,1,0,26.666" transform="translate(234.402 11.312)" fill="#010202"/>
        <path id="Fill_17" data-name="Fill 17" d="M0,30.218H8.512V0H0Z" transform="translate(265.911 11.762)" fill="#010202"/>
        <path id="Fill_18" data-name="Fill 18" d="M0,.563H8.512V4.849C10.471,2.31,12.992,0,17.3,0c6.438,0,10.189,4.284,10.189,11.219V30.781H18.983V13.924c0-4.058-1.9-6.146-5.152-6.146S8.512,9.866,8.512,13.924V30.781H0Z" transform="translate(282.81 11.201)" fill="#010202"/>
        <path id="Fill_19" data-name="Fill 19" d="M14.781,39.914A28.275,28.275,0,0,1,1.51,36.756L4.424,30.33a19.528,19.528,0,0,0,10.132,2.763c2.875,0,5.051-.7,6.468-2.086,1.394-1.361,2.1-3.428,2.1-6.144V23.4c-2.882,3.483-5.723,4.9-9.8,4.9a13.163,13.163,0,0,1-9.286-3.685A14.149,14.149,0,0,1,0,14.205v-.111C0,4.841,6.7,0,13.324,0a12.151,12.151,0,0,1,9.688,4.51V.562h8.511v23.4c0,5.351-1.281,9.353-3.807,11.895C25,38.586,20.772,39.914,14.781,39.914ZM15.79,7.1A6.906,6.906,0,0,0,8.51,14.094v.111A6.906,6.906,0,0,0,15.79,21.2c4.25,0,7.334-2.94,7.334-6.991v-.111C23.125,10.043,20.04,7.1,15.79,7.1Z" transform="translate(317.009 11.2)" fill="#010202"/>
        <path id="Fill_20" data-name="Fill 20" d="M9.081,4.57A4.54,4.54,0,1,1,4.539,0,4.557,4.557,0,0,1,9.081,4.57" transform="translate(218.947 0.002)" fill="#010202"/>
        <path id="Fill_21" data-name="Fill 21" d="M9.081,4.57A4.54,4.54,0,1,1,4.539,0,4.557,4.557,0,0,1,9.081,4.57" transform="translate(265.629 0.002)" fill="#010202"/>
      </g>
    </g>
  </g>
  <g id="Identity_Caribbean_part3bold" data-name="Identity/Caribbean/part3bold" transform="translate(33 191)">
    <g id="Group_21" data-name="Group 21" transform="translate(5.747 1.945)">
      <path id="Fill_1-3" data-name="Fill 1" d="M0,12.746v-.07A12.366,12.366,0,0,1,12.589,0a12.363,12.363,0,0,1,9.52,3.784L18.729,7.739a8.85,8.85,0,0,0-6.172-2.765c-4.071,0-7,3.432-7,7.632v.07c0,4.2,2.864,7.7,7,7.7,2.758,0,4.448-1.12,6.344-2.872l3.381,3.467a12.261,12.261,0,0,1-9.9,4.375A12.279,12.279,0,0,1,0,12.746" transform="translate(0.001 0.845)" fill="#010202"/>
      <path id="Fill_3" data-name="Fill 3" d="M6.344,19.323C3.186,19.323,0,17.549,0,13.583v-.07c0-3.8,2.715-5.987,7.448-5.987a13.038,13.038,0,0,1,4.52.77V7.982C11.968,5.737,10.6,4.55,8,4.55A13.369,13.369,0,0,0,2.9,5.565L1.586,1.505A16.05,16.05,0,0,1,8.76,0C11.531,0,13.631.707,15,2.1c1.328,1.346,2,3.361,2,5.987V18.973H11.932v-2.03A7.051,7.051,0,0,1,6.344,19.323Zm2.346-8.612c-2.3,0-3.622.944-3.622,2.59v.07c0,1.382,1.124,2.275,2.864,2.275,2.417,0,4.1-1.353,4.1-3.29v-.943A8.037,8.037,0,0,0,8.691,10.712Z" transform="translate(25.109 6.8)" fill="#010202"/>
      <path id="Fill_5" data-name="Fill 5" d="M0,.36H5.241V4.14C6.312,1.548,8.036-.132,11.139.008V5.577h-.274c-3.483,0-5.624,2.133-5.624,6.615v6.932H0Z" transform="translate(46.385 6.649)" fill="#010202"/>
      <path id="Clip_8-2" data-name="Clip 8" d="M0,26.194H281.083V0H0Z" transform="translate(0 0)" fill="none"/>
      <g id="Group_21-2" data-name="Group 21" transform="translate(0 0)" clip-path="url(#clip-path-5)">
        <path id="Fill_7" data-name="Fill 7" d="M0,18.764H5.243V0H0Z" transform="translate(62.111 7.01)" fill="#010202"/>
        <path id="Fill_9" data-name="Fill 9" d="M11,25.905a7.027,7.027,0,0,1-5.76-2.8v2.452H0V0H5.243V9.487A6.771,6.771,0,0,1,11,6.442c4.182,0,8.415,3.331,8.415,9.7v.07a10.208,10.208,0,0,1-2.565,7.2A7.982,7.982,0,0,1,11,25.905ZM9.658,10.958c-2.556,0-4.484,2.227-4.484,5.18v.07c0,2.954,1.928,5.182,4.484,5.182,2.617,0,4.517-2.179,4.517-5.182v-.07C14.175,13.185,12.233,10.958,9.658,10.958Z" transform="translate(72.455 0.217)" fill="#010202"/>
        <path id="Fill_10-2" data-name="Fill 10" d="M11,25.905a7.027,7.027,0,0,1-5.76-2.8v2.452H0V0H5.243V9.487A6.771,6.771,0,0,1,11,6.442c4.182,0,8.415,3.331,8.415,9.7v.07a10.208,10.208,0,0,1-2.565,7.2A7.982,7.982,0,0,1,11,25.905ZM9.658,10.958c-2.556,0-4.484,2.227-4.484,5.18v.07c0,2.954,1.928,5.182,4.484,5.182,2.617,0,4.517-2.179,4.517-5.182v-.07C14.175,13.185,12.233,10.958,9.658,10.958Z" transform="translate(95.867 0.217)" fill="#010202"/>
        <path id="Fill_11" data-name="Fill 11" d="M9.656,19.535a9.694,9.694,0,0,1-6.91-2.7A9.731,9.731,0,0,1,0,9.839V9.767C0,4.2,3.93,0,9.141,0c6.644,0,9,5.488,9,10.187,0,.38-.029.806-.059,1.257l-.01.145H5.208a4.293,4.293,0,0,0,4.517,3.677,6.054,6.054,0,0,0,4.484-1.927l3,2.7A9.177,9.177,0,0,1,9.656,19.535ZM9.141,4.27c-2.077,0-3.573,1.492-4,3.992h7.9C12.711,5.763,11.255,4.27,9.141,4.27Z" transform="translate(118.589 6.658)" fill="#010202"/>
        <path id="Fill_12-2" data-name="Fill 12" d="M6.344,19.323C3.186,19.323,0,17.549,0,13.583v-.07c0-3.8,2.715-5.987,7.448-5.987a13.038,13.038,0,0,1,4.52.77V7.982C11.968,5.737,10.6,4.55,8,4.55A13.369,13.369,0,0,0,2.9,5.565L1.586,1.505A16.05,16.05,0,0,1,8.76,0C11.531,0,13.631.707,15,2.1c1.328,1.346,2,3.361,2,5.987V18.973H11.932v-2.03A7.051,7.051,0,0,1,6.344,19.323Zm2.346-8.612c-2.3,0-3.622.944-3.622,2.59v.07c0,1.382,1.124,2.275,2.864,2.275,2.417,0,4.1-1.353,4.1-3.29v-.943A8.037,8.037,0,0,0,8.691,10.712Z" transform="translate(139.863 6.8)" fill="#010202"/>
        <path id="Fill_13" data-name="Fill 13" d="M0,.352H5.241v2.66A6.525,6.525,0,0,1,10.656,0c3.967,0,6.279,2.66,6.279,6.967V19.116H11.693V8.649c0-2.52-1.174-3.815-3.174-3.815S5.241,6.129,5.241,8.649V19.116H0Z" transform="translate(161.482 6.657)" fill="#010202"/>
        <path id="Fill_14-2" data-name="Fill 14" d="M0,19.5,2.875,16a10.064,10.064,0,0,0,6.6,2.726c1.99,0,3.191-.8,3.191-2.116v-.066c0-1.25-.757-1.89-4.456-2.852C3.76,12.54.885,11.287.885,6.829V6.767C.885,2.691,4.109,0,8.626,0a12.687,12.687,0,0,1,8.216,2.852L14.313,6.574A10.292,10.292,0,0,0,8.563,4.361c-1.864,0-2.845.865-2.845,1.956v.064c0,1.476.948,1.956,4.772,2.95,4.486,1.188,7.015,2.823,7.015,6.736v.066c0,4.457-3.348,6.959-8.122,6.959A13.955,13.955,0,0,1,0,19.5" transform="translate(191.065 3.003)" fill="#010202"/>
        <path id="Fill_15" data-name="Fill 15" d="M4.961,22.613H0L9.48,0h4.486l9.478,22.609-5.085,0-2.022-5.036H6.982L4.962,22.612Zm6.7-16.679h0l-2.938,7.28H14.6L11.66,5.934Z" transform="translate(219.665 3.162)" fill="#010202"/>
        <path id="Fill_16-2" data-name="Fill 16" d="M0,19.5,2.875,16a10.064,10.064,0,0,0,6.6,2.726c1.99,0,3.191-.8,3.191-2.116v-.066c0-1.25-.757-1.89-4.454-2.852C3.76,12.54.885,11.287.885,6.829V6.767C.885,2.691,4.109,0,8.626,0a12.684,12.684,0,0,1,8.216,2.852L14.315,6.574A10.3,10.3,0,0,0,8.563,4.361c-1.864,0-2.845.865-2.845,1.956v.064c0,1.476.948,1.956,4.774,2.95,4.484,1.188,7.013,2.823,7.013,6.736v.066c0,4.457-3.348,6.959-8.12,6.959A13.956,13.956,0,0,1,0,19.5" transform="translate(255.38 3.003)" fill="#010202"/>
        <path id="Fill_17-2" data-name="Fill 17" d="M5.084,2.58a2.561,2.561,0,0,1-2.542,2.58A2.56,2.56,0,0,1,0,2.58,2.56,2.56,0,0,1,2.542,0,2.561,2.561,0,0,1,5.084,2.58" transform="translate(246.595 20.644)" fill="#010202"/>
        <path id="Fill_18-2" data-name="Fill 18" d="M5.086,2.58a2.562,2.562,0,0,1-2.542,2.58A2.561,2.561,0,0,1,0,2.58,2.561,2.561,0,0,1,2.544,0,2.562,2.562,0,0,1,5.086,2.58" transform="translate(275.999 20.644)" fill="#010202"/>
        <path id="Fill_19-2" data-name="Fill 19" d="M5.084,2.58a2.561,2.561,0,0,1-2.542,2.58A2.561,2.561,0,0,1,0,2.58,2.561,2.561,0,0,1,2.542,0,2.561,2.561,0,0,1,5.084,2.58" transform="translate(211.084 20.644)" fill="#010202"/>
        <path id="Fill_20-2" data-name="Fill 20" d="M5.084,2.582a2.562,2.562,0,0,1-2.542,2.58A2.561,2.561,0,0,1,0,2.582,2.562,2.562,0,0,1,2.542,0,2.563,2.563,0,0,1,5.084,2.582" transform="translate(62.19 -0.001)" fill="#010202"/>
      </g>
    </g>
  </g>
</svg>
